<mxfile host="app.diagrams.net" modified="2022-09-06T17:43:48.876Z" agent="5.0 (Windows NT 10.0; Win64; x64) AppleWebKit/537.36 (KHTML, like Gecko) Chrome/105.0.0.0 Safari/537.36" etag="mMvhr6Yo0EyrPcrOP7fs" version="20.2.7" type="github">
  <diagram id="NZcnZFmh6wLftyMG3GAL" name="Page-1">
    <mxGraphModel dx="869" dy="476" grid="1" gridSize="10" guides="1" tooltips="1" connect="1" arrows="1" fold="1" page="1" pageScale="1" pageWidth="827" pageHeight="1169" math="0" shadow="0">
      <root>
        <mxCell id="0" />
        <mxCell id="1" parent="0" />
        <mxCell id="Z7-1jIpQj_UgxVCSQVgs-1" style="edgeStyle=orthogonalEdgeStyle;rounded=0;orthogonalLoop=1;jettySize=auto;html=1;exitX=0.5;exitY=1;exitDx=0;exitDy=0;entryX=0.5;entryY=0;entryDx=0;entryDy=0;" parent="1" source="Z7-1jIpQj_UgxVCSQVgs-2" target="Z7-1jIpQj_UgxVCSQVgs-5" edge="1">
          <mxGeometry relative="1" as="geometry" />
        </mxCell>
        <mxCell id="Z7-1jIpQj_UgxVCSQVgs-2" value="Mulai" style="ellipse;whiteSpace=wrap;html=1;fontSize=18;fontFamily=Times New Roman;" parent="1" vertex="1">
          <mxGeometry x="315" y="40" width="180" height="40" as="geometry" />
        </mxCell>
        <mxCell id="Z7-1jIpQj_UgxVCSQVgs-4" style="edgeStyle=orthogonalEdgeStyle;rounded=0;orthogonalLoop=1;jettySize=auto;html=1;exitX=0.5;exitY=1;exitDx=0;exitDy=0;entryX=0.5;entryY=0;entryDx=0;entryDy=0;" parent="1" source="Z7-1jIpQj_UgxVCSQVgs-5" target="Z7-1jIpQj_UgxVCSQVgs-7" edge="1">
          <mxGeometry relative="1" as="geometry" />
        </mxCell>
        <mxCell id="Z7-1jIpQj_UgxVCSQVgs-5" value="Pengumpulan Data" style="shape=parallelogram;perimeter=parallelogramPerimeter;whiteSpace=wrap;html=1;fixedSize=1;fontSize=18;fontFamily=Times New Roman;" parent="1" vertex="1">
          <mxGeometry x="210" y="100" width="390" height="30" as="geometry" />
        </mxCell>
        <mxCell id="Z7-1jIpQj_UgxVCSQVgs-55" style="edgeStyle=orthogonalEdgeStyle;rounded=0;orthogonalLoop=1;jettySize=auto;html=1;exitX=0.5;exitY=1;exitDx=0;exitDy=0;" parent="1" source="Z7-1jIpQj_UgxVCSQVgs-7" target="Z7-1jIpQj_UgxVCSQVgs-9" edge="1">
          <mxGeometry relative="1" as="geometry" />
        </mxCell>
        <mxCell id="Z7-1jIpQj_UgxVCSQVgs-7" value="Pengelolaan Data Awal" style="shape=parallelogram;perimeter=parallelogramPerimeter;whiteSpace=wrap;html=1;fixedSize=1;fontSize=18;fontFamily=Times New Roman;" parent="1" vertex="1">
          <mxGeometry x="210" y="160" width="390" height="35" as="geometry" />
        </mxCell>
        <mxCell id="OrNxgOPWfYCeLEJUeq8R-3" style="edgeStyle=orthogonalEdgeStyle;rounded=0;orthogonalLoop=1;jettySize=auto;html=1;exitX=0.5;exitY=1;exitDx=0;exitDy=0;entryX=0.5;entryY=0;entryDx=0;entryDy=0;fontFamily=Times New Roman;fontSize=18;" edge="1" parent="1" source="Z7-1jIpQj_UgxVCSQVgs-9" target="OrNxgOPWfYCeLEJUeq8R-1">
          <mxGeometry relative="1" as="geometry" />
        </mxCell>
        <mxCell id="Z7-1jIpQj_UgxVCSQVgs-9" value="Membuat Model Klasifikasi dengan Algoritma CNN" style="rounded=0;whiteSpace=wrap;html=1;fontSize=18;fontFamily=Times New Roman;" parent="1" vertex="1">
          <mxGeometry x="210" y="220" width="390" height="40" as="geometry" />
        </mxCell>
        <mxCell id="OrNxgOPWfYCeLEJUeq8R-13" style="edgeStyle=orthogonalEdgeStyle;rounded=0;orthogonalLoop=1;jettySize=auto;html=1;exitX=0.5;exitY=1;exitDx=0;exitDy=0;entryX=0.5;entryY=0;entryDx=0;entryDy=0;fontFamily=Times New Roman;fontSize=16;" edge="1" parent="1" source="Z7-1jIpQj_UgxVCSQVgs-13" target="OrNxgOPWfYCeLEJUeq8R-8">
          <mxGeometry relative="1" as="geometry" />
        </mxCell>
        <mxCell id="Z7-1jIpQj_UgxVCSQVgs-13" value="Implementasi dengan TensorFlow.js di Web" style="rounded=0;whiteSpace=wrap;html=1;fontSize=18;fontFamily=Times New Roman;" parent="1" vertex="1">
          <mxGeometry x="210" y="470" width="390" height="40" as="geometry" />
        </mxCell>
        <mxCell id="Z7-1jIpQj_UgxVCSQVgs-16" value="Tidak" style="edgeStyle=orthogonalEdgeStyle;rounded=0;orthogonalLoop=1;jettySize=auto;html=1;exitX=1;exitY=0.5;exitDx=0;exitDy=0;entryX=1;entryY=0.5;entryDx=0;entryDy=0;fontSize=16;fontFamily=Times New Roman;" parent="1" source="Z7-1jIpQj_UgxVCSQVgs-18" target="Z7-1jIpQj_UgxVCSQVgs-9" edge="1">
          <mxGeometry relative="1" as="geometry">
            <Array as="points">
              <mxPoint x="630" y="395" />
              <mxPoint x="630" y="240" />
            </Array>
          </mxGeometry>
        </mxCell>
        <mxCell id="Z7-1jIpQj_UgxVCSQVgs-17" value="Ya" style="edgeStyle=orthogonalEdgeStyle;rounded=0;orthogonalLoop=1;jettySize=auto;html=1;exitX=0.5;exitY=1;exitDx=0;exitDy=0;entryX=0.5;entryY=0;entryDx=0;entryDy=0;fontSize=16;fontFamily=Times New Roman;" parent="1" source="Z7-1jIpQj_UgxVCSQVgs-18" target="Z7-1jIpQj_UgxVCSQVgs-13" edge="1">
          <mxGeometry relative="1" as="geometry" />
        </mxCell>
        <mxCell id="Z7-1jIpQj_UgxVCSQVgs-18" value="&lt;font style=&quot;font-size: 18px;&quot;&gt;Klasifikasi gambar di&lt;i&gt; Model &lt;br&gt;Machine Learning&lt;/i&gt; sudah tepat uji?&lt;/font&gt;" style="rhombus;whiteSpace=wrap;html=1;fontSize=18;fontFamily=Times New Roman;" parent="1" vertex="1">
          <mxGeometry x="210" y="360" width="390" height="70" as="geometry" />
        </mxCell>
        <mxCell id="Z7-1jIpQj_UgxVCSQVgs-30" value="Selesai" style="ellipse;whiteSpace=wrap;html=1;fontSize=18;fontFamily=Times New Roman;" parent="1" vertex="1">
          <mxGeometry x="315" y="720" width="180" height="50" as="geometry" />
        </mxCell>
        <mxCell id="Z7-1jIpQj_UgxVCSQVgs-46" style="edgeStyle=orthogonalEdgeStyle;rounded=0;orthogonalLoop=1;jettySize=auto;html=1;exitX=0.5;exitY=1;exitDx=0;exitDy=0;entryX=0.5;entryY=0;entryDx=0;entryDy=0;" parent="1" edge="1">
          <mxGeometry relative="1" as="geometry">
            <mxPoint x="579" y="185" as="targetPoint" />
          </mxGeometry>
        </mxCell>
        <mxCell id="Z7-1jIpQj_UgxVCSQVgs-33" style="edgeStyle=orthogonalEdgeStyle;rounded=0;orthogonalLoop=1;jettySize=auto;html=1;exitX=0.5;exitY=1;exitDx=0;exitDy=0;entryX=0.5;entryY=0;entryDx=0;entryDy=0;" parent="1" edge="1">
          <mxGeometry relative="1" as="geometry">
            <mxPoint x="580" y="255" as="targetPoint" />
          </mxGeometry>
        </mxCell>
        <mxCell id="Z7-1jIpQj_UgxVCSQVgs-39" value="Ya" style="edgeStyle=orthogonalEdgeStyle;rounded=0;orthogonalLoop=1;jettySize=auto;html=1;exitX=0.5;exitY=1;exitDx=0;exitDy=0;fontSize=16;fontFamily=Times New Roman;entryX=0.5;entryY=0;entryDx=0;entryDy=0;" parent="1" source="Z7-1jIpQj_UgxVCSQVgs-41" target="Z7-1jIpQj_UgxVCSQVgs-30" edge="1">
          <mxGeometry relative="1" as="geometry">
            <mxPoint x="405" y="770" as="targetPoint" />
          </mxGeometry>
        </mxCell>
        <mxCell id="Z7-1jIpQj_UgxVCSQVgs-40" value="Tidak" style="edgeStyle=orthogonalEdgeStyle;rounded=0;orthogonalLoop=1;jettySize=auto;html=1;exitX=1;exitY=0.5;exitDx=0;exitDy=0;fontSize=16;fontFamily=Times New Roman;entryX=1;entryY=0.5;entryDx=0;entryDy=0;" parent="1" source="Z7-1jIpQj_UgxVCSQVgs-41" target="Z7-1jIpQj_UgxVCSQVgs-13" edge="1">
          <mxGeometry relative="1" as="geometry">
            <mxPoint x="531" y="510" as="targetPoint" />
            <Array as="points">
              <mxPoint x="630" y="645" />
              <mxPoint x="630" y="490" />
            </Array>
          </mxGeometry>
        </mxCell>
        <mxCell id="Z7-1jIpQj_UgxVCSQVgs-41" value="&lt;blockquote style=&quot;margin: 0 0 0 40px; border: none; padding: 0px;&quot;&gt;Klasifikasi gambar&amp;nbsp;&lt;/blockquote&gt;&lt;blockquote style=&quot;margin: 0 0 0 40px; border: none; padding: 0px;&quot;&gt;di&amp;nbsp;&lt;span style=&quot;background-color: initial;&quot;&gt;Web&amp;nbsp;&lt;/span&gt;&lt;span style=&quot;background-color: initial;&quot;&gt;sudah tepat uji?&lt;/span&gt;&lt;/blockquote&gt;" style="rhombus;whiteSpace=wrap;html=1;fontSize=18;fontFamily=Times New Roman;" parent="1" vertex="1">
          <mxGeometry x="210" y="610" width="390" height="70" as="geometry" />
        </mxCell>
        <mxCell id="OrNxgOPWfYCeLEJUeq8R-2" style="edgeStyle=orthogonalEdgeStyle;rounded=0;orthogonalLoop=1;jettySize=auto;html=1;exitX=0.5;exitY=1;exitDx=0;exitDy=0;entryX=0.5;entryY=0;entryDx=0;entryDy=0;fontFamily=Times New Roman;fontSize=18;" edge="1" parent="1" source="OrNxgOPWfYCeLEJUeq8R-1" target="Z7-1jIpQj_UgxVCSQVgs-18">
          <mxGeometry relative="1" as="geometry" />
        </mxCell>
        <mxCell id="OrNxgOPWfYCeLEJUeq8R-1" value="Pengujian gambar di &lt;i&gt;Model Machine Learning&lt;/i&gt;" style="rounded=0;whiteSpace=wrap;html=1;fontFamily=Times New Roman;fontSize=18;" vertex="1" parent="1">
          <mxGeometry x="210" y="290" width="390" height="40" as="geometry" />
        </mxCell>
        <mxCell id="OrNxgOPWfYCeLEJUeq8R-10" style="edgeStyle=orthogonalEdgeStyle;rounded=0;orthogonalLoop=1;jettySize=auto;html=1;exitX=0.5;exitY=1;exitDx=0;exitDy=0;entryX=0.5;entryY=0;entryDx=0;entryDy=0;fontFamily=Times New Roman;fontSize=16;" edge="1" parent="1" source="OrNxgOPWfYCeLEJUeq8R-8" target="Z7-1jIpQj_UgxVCSQVgs-41">
          <mxGeometry relative="1" as="geometry" />
        </mxCell>
        <mxCell id="OrNxgOPWfYCeLEJUeq8R-8" value="Pengujian gambar di Web&amp;nbsp;" style="rounded=0;whiteSpace=wrap;html=1;fontSize=18;fontFamily=Times New Roman;" vertex="1" parent="1">
          <mxGeometry x="210" y="540" width="390" height="40" as="geometry" />
        </mxCell>
      </root>
    </mxGraphModel>
  </diagram>
</mxfile>
